<svg aria-hidden="true" style="width:0;height:0;position:absolute;overflow:hidden" xmlns="http://www.w3.org/2000/svg"><defs><symbol id="icon-search" viewBox="0 0 32 32"><path d="m31.008 27.231-7.58-6.447c-.784-.705-1.622-1.029-2.299-.998a11.954 11.954 0 0 0 2.87-7.787c0-6.627-5.373-12-12-12s-12 5.373-12 12 5.373 12 12 12c2.972 0 5.691-1.081 7.787-2.87-.031.677.293 1.515.998 2.299l6.447 7.58c1.104 1.226 2.907 1.33 4.007.23s.997-2.903-.23-4.007zM12 20a8 8 0 1 1 0-16 8 8 0 0 1 0 16z"/></symbol><symbol id="icon-infinity" viewBox="0 0 20 20"><path d="M15.902 5.6c-2.079 0-4.358 1.158-5.902 2.916C8.455 6.758 6.175 5.6 4.096 5.6 2.116 5.6 0 6.756 0 10s2.116 4.398 4.096 4.4c2.079 0 4.358-1.158 5.903-2.916 1.544 1.758 3.823 2.916 5.902 2.916C17.882 14.4 20 13.244 20 10s-2.118-4.4-4.098-4.4zM4.096 12.641C2.584 12.641 1.8 11.752 1.8 10s.784-2.641 2.296-2.641c1.673 0 3.614 1.086 4.807 2.641-1.193 1.555-3.134 2.641-4.807 2.641zm11.806 0c-1.673 0-3.614-1.086-4.807-2.641 1.192-1.555 3.135-2.641 4.807-2.641 1.512 0 2.298.889 2.298 2.641s-.786 2.641-2.298 2.641z"/></symbol></defs></svg>